<?xml version="1.0" encoding="UTF-8"?>
<svg xmlns="http://www.w3.org/2000/svg" viewBox="0 0 1000 900" font-family="Arial, sans-serif">
  <!-- Background -->
  <rect width="1000" height="900" fill="#f9f9fa"/>
  
  <!-- Title Section -->
  <rect x="50" y="30" width="900" height="100" rx="10" fill="#2F6687"/>
  <text x="500" y="85" font-size="40" font-weight="bold" text-anchor="middle" fill="white">Bi-Temporal Modeling Flow</text>
  <text x="500" y="115" font-size="20" text-anchor="middle" fill="white">Understanding time dimensions: business validity and system recording</text>
  
  <!-- Section 1: The Two Time Dimensions -->
  <rect x="50" y="160" width="900" height="180" rx="10" fill="#e6f2ff"/>
  <text x="500" y="190" font-size="28" font-weight="bold" text-anchor="middle" fill="#333">The Two Time Dimensions</text>
  

  <!-- Section 2: Bi-Temporal Data Flow -->
  <rect x="50" y="370" width="900" height="480" rx="10" fill="#ffffff" stroke="#2F6687" stroke-width="2"/>
  <text x="500" y="400" font-size="28" font-weight="bold" text-anchor="middle" fill="#333">Bi-Temporal Data Flow Example</text>
  
  <!-- Timeline -->
  <line x1="100" y1="450" x2="900" y2="450" stroke="#000" stroke-width="2"/>
  <polygon points="895,445 905,450 895,455" fill="#000"/>
  <text x="500" y="480" font-size="16" font-weight="bold" text-anchor="middle" fill="#333">Timeline</text>
  
  <!-- Time Points -->
  <line x1="200" y1="440" x2="200" y2="460" stroke="#000" stroke-width="2"/>
  <text x="200" y="430" font-size="14" text-anchor="middle" fill="#333">Jan 1, 2023</text>
  
  <line x1="500" y1="440" x2="500" y2="460" stroke="#000" stroke-width="2"/>
  <text x="500" y="430" font-size="14" text-anchor="middle" fill="#333">Update Time</text>
  <text x="500" y="415" font-size="14" text-anchor="middle" fill="#333">(May 17, 2024)</text>
  
  <line x1="800" y1="440" x2="800" y2="460" stroke="#000" stroke-width="2"/>
  <text x="800" y="430" font-size="14" text-anchor="middle" fill="#333">Future</text>
  
  <!-- Product Record Visuals -->
  
  <!-- Step 1: Initial Data -->
  <text x="150" y="520" font-size="16" font-weight="bold" fill="#333">Step 1: Initial Data</text>
  
  <!-- Product A - Initial -->
  <rect x="175" y="540" width="325" height="50" rx="5" fill="#bbdefb" stroke="#2F6687" stroke-width="2"/>
  <text x="190" y="570" font-size="14" fill="#333">Product A ($100)</text>
  <text x="500" y="570" font-size="14" text-anchor="end" fill="#333">is_current = TRUE</text>
  
  <!-- Labels for Time -->
  <line x1="175" y1="600" x2="175" y2="590" stroke="#2F6687" stroke-width="1" stroke-dasharray="3,3"/>
  <text x="175" y="610" font-size="12" text-anchor="middle" fill="#2F6687">valid_from</text>
  <text x="175" y="625" font-size="12" text-anchor="middle" fill="#2F6687">system_from</text>
  
  <line x1="500" y1="540" x2="500" y2="590" stroke="#8E44AD" stroke-width="1" stroke-dasharray="3,3"/>
  <text x="500" y="535" font-size="12" text-anchor="middle" fill="#8E44AD">Update occurs here</text>
  
  <!-- Product B -->
  <rect x="175" y="650" width="625" height="50" rx="5" fill="#bbdefb" stroke="#2F6687" stroke-width="2"/>
  <text x="190" y="680" font-size="14" fill="#333">Product B ($200)</text>
  <text x="500" y="680" font-size="14" text-anchor="end" fill="#333">is_current = TRUE</text>
  
  <!-- Step 2: After Update -->
  <text x="150" y="730" font-size="16" font-weight="bold" fill="#333">Step 2: After Update Transaction</text>
  
  <!-- Product A - Historical -->
  <rect x="175" y="750" width="325" height="50" rx="5" fill="#ffcdd2" stroke="#D32F2F" stroke-width="2"/>
  <text x="190" y="780" font-size="14" fill="#333">Product A ($100) - Historical</text>
  <text x="500" y="780" font-size="14" text-anchor="end" fill="#333">is_current = FALSE</text>
  
  <!-- Valid/System time cutoffs -->
  <line x1="800" y1="750" x2="500" y2="800" stroke="#2F6687" stroke-width="1" stroke-dasharray="3,3"/>
  <text x="800" y="810" font-size="12" text-anchor="middle" fill="#2F6687">valid_to</text>
  
  <line x1="800" y1="750" x2="500" y2="800" stroke="#8E44AD" stroke-width="1" stroke-dasharray="3,3"/>
  <text x="800" y="825" font-size="12" text-anchor="middle" fill="#8E44AD">system_to</text>
  
  <!-- Product A - New Current -->
  <rect x="500" y="750" width="300" height="50" rx="5" fill="#bbdefb" stroke="#2F6687" stroke-width="2"/>
  <text x="515" y="780" font-size="14" fill="#333">Product A ($200) - New</text>
  <text x="790" y="780" font-size="14" text-anchor="end" fill="#333">is_current = TRUE</text>
  
  <!-- Labels for new record -->
  <line x1="500" y1="810" x2="500" y2="800" stroke="#2F6687" stroke-width="1" stroke-dasharray="3,3"/>
  <text x="500" y="810" font-size="12" text-anchor="middle" fill="#2F6687">valid_from</text>
  
  <line x1="500" y1="825" x2="500" y2="800" stroke="#8E44AD" stroke-width="1" stroke-dasharray="3,3"/>
  <text x="500" y="825" font-size="12" text-anchor="middle" fill="#8E44AD">system_from</text>

    <!-- Two Dimensions Visualization -->
  <g transform="translate(150, 220)">
    <!-- Valid Time Arrow -->
    <line x1="0" y1="50" x2="700" y2="50" stroke="#2F6687" stroke-width="3"/>
    <polygon points="695,45 705,50 695,55" fill="#2F6687"/>
    <text x="350" y="80" font-size="18" font-weight="bold" text-anchor="middle" fill="#2F6687">Valid Time (Business Reality)</text>
    <text x="350" y="100" font-size="14" text-anchor="middle" fill="#666">When facts were true in the real world</text>
    
    <!-- System Time Arrow -->
    <line x1="0" y1="0" x2="0" y2="100" stroke="#8E44AD" stroke-width="3"/>
    <polygon points="-5,95 0,105 5,95" fill="#8E44AD"/>
    <text x="-30" y="50" font-size="18" font-weight="bold" text-anchor="middle" fill="#8E44AD" transform="rotate(-90, -30, 50)">System Time (Database Record)</text>
    <text x="-60" y="50" font-size="14" text-anchor="middle" fill="#666" transform="rotate(-90, -60, 50)">When we recorded the knowledge</text>
  </g>
  
  <!-- Legend -->
  <rect x="100" y="850" width="20" height="20" fill="#bbdefb" stroke="#333" stroke-width="1"/>
  <text x="130" y="865" font-size="14" fill="#333">Current Records</text>
  
  <rect x="300" y="850" width="20" height="20" fill="#ffcdd2" stroke="#333" stroke-width="1"/>
  <text x="330" y="865" font-size="14" fill="#333">Historical Records</text>
  
  <rect x="500" y="850" width="20" height="20" fill="#ffffff" stroke="#2F6687" stroke-width="2"/>
  <text x="530" y="865" font-size="14" fill="#333">Valid Time Dimension</text>
  
  <rect x="700" y="850" width="20" height="20" fill="#ffffff" stroke="#8E44AD" stroke-width="2"/>
  <text x="730" y="865" font-size="14" fill="#333">System Time Dimension</text>
</svg>