<?xml version="1.0" encoding="UTF-8"?>
<svg xmlns="http://www.w3.org/2000/svg" viewBox="0 0 1000 800" font-family="Arial, sans-serif">
  <!-- Background -->
  <rect width="1000" height="800" fill="#f9f9fa"/>
  
  <!-- Title Section -->
  <rect x="50" y="30" width="900" height="80" rx="10" fill="#3182ce"/>
  <text x="500" y="80" font-size="36" font-weight="bold" text-anchor="middle" fill="white">Bi-Temporal Implementation in ClickHouse</text>
  
  <!-- Section 1: ClickHouse Schema -->
  <rect x="50" y="140" width="900" height="240" rx="10" fill="#ffffff" stroke="#3182ce" stroke-width="2"/>
  <text x="65" y="170" font-size="28" font-weight="bold" fill="#3182ce">ClickHouse Schema for Bi-Temporal Table</text>
  
  <!-- Schema Code Block -->
  <rect x="65" y="190" width="870" height="170" rx="5" fill="#f5f5f5" stroke="#ddd" stroke-width="1"/>
  <text x="85" y="220" font-size="16" font-family="Consolas, monospace" fill="#333">CREATE TABLE products_bitemporal (</text>
  <text x="105" y="245" font-size="16" font-family="Consolas, monospace" fill="#333">product_id UInt32,</text>
  <text x="105" y="270" font-size="16" font-family="Consolas, monospace" fill="#333">name String,</text>
  <text x="105" y="295" font-size="16" font-family="Consolas, monospace" fill="#333">price Decimal(10, 2),</text>
  <text x="105" y="320" font-size="16" font-family="Consolas, monospace" fill="#333">valid_from DateTime,   -- When this fact became true in business</text>
  <text x="105" y="345" font-size="16" font-family="Consolas, monospace" fill="#333">valid_to DateTime,     -- When this fact ceased to be true</text>
  <text x="105" y="370" font-size="16" font-family="Consolas, monospace" fill="#333">system_from DateTime,  -- When this record was inserted</text>
  <text x="105" y="395" font-size="16" font-family="Consolas, monospace" fill="#333">system_to DateTime     -- When this record was logically deleted</text>
  <text x="85" y="420" font-size="16" font-family="Consolas, monospace" fill="#333">) ENGINE = ReplacingMergeTree(system_from) ORDER BY (product_id, valid_from, system_from);</text>
  
  <!-- Section 2: Querying Example -->
  <rect x="50" y="410" width="900" height="130" rx="10" fill="#ffffff" stroke="#3182ce" stroke-width="2"/>
  <text x="65" y="440" font-size="28" font-weight="bold" fill="#3182ce">Querying at a Specific Point in Time</text>
  
  <rect x="65" y="460" width="870" height="60" rx="5" fill="#f5f5f5" stroke="#ddd" stroke-width="1"/>
  <text x="75" y="485" font-size="14" font-family="Consolas, monospace" fill="#333">SELECT product_id, name, price FROM products_bitemporal</text>
  <text x="75" y="505" font-size="14" font-family="Consolas, monospace" fill="#333">WHERE valid_from <= '2024-01-15' AND (valid_to > '2024-01-15' OR valid_to = '1970-01-01')</text>
  <text x="75" y="525" font-size="14" font-family="Consolas, monospace" fill="#333">  AND system_from <= '2024-03-15' AND (system_to > '2024-03-15' OR system_to = '1970-01-01');</text>
  
  <!-- Section 3: Example Data Table -->
  <rect x="50" y="570" width="900" height="320" rx="10" fill="#ffffff" stroke="#3182ce" stroke-width="2"/>
  <text x="65" y="600" font-size="28" font-weight="bold" fill="#3182ce">Example Bi-Temporal Data (Product Price Changes)</text>
  
  <!-- Table Headers -->
  <rect x="65" y="620" width="90" height="40" fill="#3182ce"/>
  <rect x="155" y="620" width="140" height="40" fill="#3182ce"/>
  <rect x="295" y="620" width="80" height="40" fill="#3182ce"/>
  <rect x="375" y="620" width="140" height="40" fill="#3182ce"/>
  <rect x="515" y="620" width="140" height="40" fill="#3182ce"/>
  <rect x="655" y="620" width="140" height="40" fill="#3182ce"/>
  <rect x="795" y="620" width="140" height="40" fill="#3182ce"/>
  
  <text x="110" y="645" font-size="14" text-anchor="middle" fill="white">product_id</text>
  <text x="225" y="645" font-size="14" text-anchor="middle" fill="white">name</text>
  <text x="335" y="645" font-size="14" text-anchor="middle" fill="white">price</text>
  <text x="445" y="645" font-size="14" text-anchor="middle" fill="white">valid_from</text>
  <text x="585" y="645" font-size="14" text-anchor="middle" fill="white">valid_to</text>
  <text x="725" y="645" font-size="14" text-anchor="middle" fill="white">system_from</text>
  <text x="865" y="645" font-size="14" text-anchor="middle" fill="white">system_to</text>
  
  <!-- Table Rows -->
  <!-- Initial record, price $19.99 from Jan 1 -->
  <rect x="65" y="660" width="90" height="40" fill="#f0f8ff" stroke="#ddd" stroke-width="1"/>
  <rect x="155" y="660" width="140" height="40" fill="#f0f8ff" stroke="#ddd" stroke-width="1"/>
  <rect x="295" y="660" width="80" height="40" fill="#f0f8ff" stroke="#ddd" stroke-width="1"/>
  <rect x="375" y="660" width="140" height="40" fill="#f0f8ff" stroke="#ddd" stroke-width="1"/>
  <rect x="515" y="660" width="140" height="40" fill="#f0f8ff" stroke="#ddd" stroke-width="1"/>
  <rect x="655" y="660" width="140" height="40" fill="#f0f8ff" stroke="#ddd" stroke-width="1"/>
  <rect x="795" y="660" width="140" height="40" fill="#f0f8ff" stroke="#ddd" stroke-width="1"/>
  
  <text x="110" y="685" font-size="14" text-anchor="middle" fill="#333">101</text>
  <text x="225" y="685" font-size="14" text-anchor="middle" fill="#333">Premium Widget</text>
  <text x="335" y="685" font-size="14" text-anchor="middle" fill="#333">19.99</text>
  <text x="445" y="685" font-size="14" text-anchor="middle" fill="#333">2024-01-01</text>
  <text x="585" y="685" font-size="14" text-anchor="middle" fill="#333">2024-03-15</text>
  <text x="725" y="685" font-size="14" text-anchor="middle" fill="#333">2024-01-01</text>
  <text x="865" y="685" font-size="14" text-anchor="middle" fill="#333">9999-12-31</text>
  
  <!-- Price increase to $24.99 on Mar 15 -->
  <rect x="65" y="700" width="90" height="40" fill="#ffffff" stroke="#ddd" stroke-width="1"/>
  <rect x="155" y="700" width="140" height="40" fill="#ffffff" stroke="#ddd" stroke-width="1"/>
  <rect x="295" y="700" width="80" height="40" fill="#ffffff" stroke="#ddd" stroke-width="1"/>
  <rect x="375" y="700" width="140" height="40" fill="#ffffff" stroke="#ddd" stroke-width="1"/>
  <rect x="515" y="700" width="140" height="40" fill="#ffffff" stroke="#ddd" stroke-width="1"/>
  <rect x="655" y="700" width="140" height="40" fill="#ffffff" stroke="#ddd" stroke-width="1"/>
  <rect x="795" y="700" width="140" height="40" fill="#ffffff" stroke="#ddd" stroke-width="1"/>
  
  <text x="110" y="725" font-size="14" text-anchor="middle" fill="#333">101</text>
  <text x="225" y="725" font-size="14" text-anchor="middle" fill="#333">Premium Widget</text>
  <text x="335" y="725" font-size="14" text-anchor="middle" fill="#333">24.99</text>
  <text x="445" y="725" font-size="14" text-anchor="middle" fill="#333">2024-03-15</text>
  <text x="585" y="725" font-size="14" text-anchor="middle" fill="#333">9999-12-31</text>
  <text x="725" y="725" font-size="14" text-anchor="middle" fill="#333">2024-03-15</text>
  <text x="865" y="725" font-size="14" text-anchor="middle" fill="#333">9999-12-31</text>
  
  <!-- Retroactive correction (on May 1) that Jan 1 price was actually $18.49 -->
  <rect x="65" y="740" width="90" height="40" fill="#f0f8ff" stroke="#ddd" stroke-width="1"/>
  <rect x="155" y="740" width="140" height="40" fill="#f0f8ff" stroke="#ddd" stroke-width="1"/>
  <rect x="295" y="740" width="80" height="40" fill="#f0f8ff" stroke="#ddd" stroke-width="1"/>
  <rect x="375" y="740" width="140" height="40" fill="#f0f8ff" stroke="#ddd" stroke-width="1"/>
  <rect x="515" y="740" width="140" height="40" fill="#f0f8ff" stroke="#ddd" stroke-width="1"/>
  <rect x="655" y="740" width="140" height="40" fill="#f0f8ff" stroke="#ddd" stroke-width="1"/>
  <rect x="795" y="740" width="140" height="40" fill="#f0f8ff" stroke="#ddd" stroke-width="1"/>
  
  <text x="110" y="765" font-size="14" text-anchor="middle" fill="#333">101</text>
  <text x="225" y="765" font-size="14" text-anchor="middle" fill="#333">Premium Widget</text>
  <text x="335" y="765" font-size="14" text-anchor="middle" fill="#333">19.99</text>
  <text x="445" y="765" font-size="14" text-anchor="middle" fill="#333">2024-01-01</text>
  <text x="585" y="765" font-size="14" text-anchor="middle" fill="#333">2024-03-15</text>
  <text x="725" y="765" font-size="14" text-anchor="middle" fill="#333">2024-01-01</text>
  <text x="865" y="765" font-size="14" text-anchor="middle" fill="#333">2024-05-01</text>
  
  <!-- Corrected Jan 1 price, added on May 1 -->
  <rect x="65" y="780" width="90" height="40" fill="#ffffff" stroke="#ddd" stroke-width="1"/>
  <rect x="155" y="780" width="140" height="40" fill="#ffffff" stroke="#ddd" stroke-width="1"/>
  <rect x="295" y="780" width="80" height="40" fill="#ffffff" stroke="#ddd" stroke-width="1"/>
  <rect x="375" y="780" width="140" height="40" fill="#ffffff" stroke="#ddd" stroke-width="1"/>
  <rect x="515" y="780" width="140" height="40" fill="#ffffff" stroke="#ddd" stroke-width="1"/>
  <rect x="655" y="780" width="140" height="40" fill="#ffffff" stroke="#ddd" stroke-width="1"/>
  <rect x="795" y="780" width="140" height="40" fill="#ffffff" stroke="#ddd" stroke-width="1"/>
  
  <text x="110" y="805" font-size="14" text-anchor="middle" fill="#333">101</text>
  <text x="225" y="805" font-size="14" text-anchor="middle" fill="#333">Premium Widget</text>
  <text x="335" y="805" font-size="14" text-anchor="middle" fill="#333">18.49</text>
  <text x="445" y="805" font-size="14" text-anchor="middle" fill="#333">2024-01-01</text>
  <text x="585" y="805" font-size="14" text-anchor="middle" fill="#333">2024-03-15</text>
  <text x="725" y="805" font-size="14" text-anchor="middle" fill="#333">2024-05-01</text>
  <text x="865" y="805" font-size="14" text-anchor="middle" fill="#333">9999-12-31</text>
  
  <!-- Color Legend -->
  <rect x="65" y="830" width="15" height="15" fill="#f0f8ff" stroke="#333" stroke-width="1"/>
  <text x="90" y="842" font-size="12" fill="#333">Historical record (original knowledge)</text>
  
  <rect x="300" y="830" width="15" height="15" fill="#ffffff" stroke="#333" stroke-width="1"/>
  <text x="325" y="842" font-size="12" fill="#333">Current record (current knowledge)</text>
</svg>
