<svg viewBox="0 0 800 700" xmlns="http://www.w3.org/2000/svg">
  <!-- Background -->
  <rect width="800" height="700" fill="#ffffff"/>
  
  <!-- Title -->
  <text x="400" y="50" font-family="Arial" font-size="24" font-weight="bold" text-anchor="middle" fill="#333">
    ClickHouse Granule Structure and Components
  </text>

  <!-- Column Data Files Section -->
  <rect x="50" y="80" width="700" height="550" rx="10" fill="#ffffff" stroke="#333" stroke-width="1"/>
  
  <!-- Column Data File Title -->
  <rect x="50" y="80" width="700" height="40" rx="10" fill="#1890ff" stroke="#1890ff" stroke-width="1"/>
  <text x="400" y="105" font-family="Arial" font-size="16" font-weight="bold" text-anchor="middle" fill="white">
    Column Data File Structure
  </text>

  <!-- Granule Structure -->
  <!-- Primary Index File -->
  <rect x="100" y="140" width="600" height="70" rx="5" fill="#e6f7ff" stroke="#1890ff" stroke-width="2"/>
  <text x="400" y="170" font-family="Arial" font-size="16" font-weight="bold" text-anchor="middle" fill="#333">
    Primary Index File (.idx)
  </text>
  <text x="400" y="195" font-family="Arial" font-size="14" text-anchor="middle" fill="#333">
    Contains min/max values for each column in each granule
  </text>

  <!-- Index connection points -->
  <circle cx="200" cy="210" r="4" fill="#1890ff"/>
  <circle cx="400" cy="210" r="4" fill="#1890ff"/>
  <circle cx="600" cy="210" r="4" fill="#1890ff"/>

  <!-- Marks File -->
  <rect x="100" y="230" width="600" height="70" rx="5" fill="#fff0f6" stroke="#eb2f96" stroke-width="2"/>
  <text x="400" y="260" font-family="Arial" font-size="16" font-weight="bold" text-anchor="middle" fill="#333">
    Marks File (.mrk)
  </text>
  <text x="400" y="285" font-family="Arial" font-size="14" text-anchor="middle" fill="#333">
    Contains offsets to the start of each granule in the .bin file
  </text>

  <!-- Mark connection points -->
  <circle cx="200" cy="300" r="4" fill="#eb2f96"/>
  <circle cx="400" cy="300" r="4" fill="#eb2f96"/>
  <circle cx="600" cy="300" r="4" fill="#eb2f96"/>

  <!-- Granules Section -->
  <rect x="100" y="320" width="600" height="290" rx="5" fill="#f9f0ff" stroke="#722ed1" stroke-width="2"/>
  <text x="400" y="345" font-family="Arial" font-size="16" font-weight="bold" text-anchor="middle" fill="#333">
    Data File with Granules (.bin)
  </text>

  <!-- Granule 1 -->
  <rect x="120" y="370" width="560" height="100" rx="5" fill="#f0f5ff" stroke="#2f54eb" stroke-width="1"/>
  <rect x="120" y="370" width="560" height="30" rx="5" fill="#adc6ff" stroke="#2f54eb" stroke-width="1"/>
  <text x="150" y="390" font-family="Arial" font-size="14" font-weight="bold" fill="#333">Granule ID: 1</text>
  
  <!-- Granule 1 connection point -->
  <circle cx="200" cy="370" r="4" fill="#eb2f96"/>
  
  <!-- Granule 1 Details -->
  <rect x="130" y="410" width="120" height="50" rx="3" fill="#d6e4ff" stroke="#2f54eb" stroke-width="1"/>
  <text x="190" y="440" font-family="Arial" font-size="12" text-anchor="middle" fill="#333">Metadata</text>
  
  <rect x="260" y="410" width="120" height="50" rx="3" fill="#d6e4ff" stroke="#2f54eb" stroke-width="1"/>
  <text x="320" y="430" font-family="Arial" font-size="12" text-anchor="middle" fill="#333">Min-Max Values</text>
  <text x="320" y="450" font-family="Arial" font-size="10" text-anchor="middle" fill="#333">Min: 1, Max: 1000</text>
  
  <!-- Min-max connection point -->
  <circle cx="320" cy="410" r="4" fill="#1890ff"/>
  
  <rect x="390" y="410" width="280" height="50" rx="3" fill="#d6e4ff" stroke="#2f54eb" stroke-width="1"/>
  <text x="530" y="440" font-family="Arial" font-size="12" text-anchor="middle" fill="#333">Raw Data (8,192 rows)</text>

  <!-- Granule 2 -->
  <rect x="120" y="480" width="560" height="100" rx="5" fill="#fff2e8" stroke="#fa541c" stroke-width="1"/>
  <rect x="120" y="480" width="560" height="30" rx="5" fill="#ffd8bf" stroke="#fa541c" stroke-width="1"/>
  <text x="150" y="500" font-family="Arial" font-size="14" font-weight="bold" fill="#333">Granule ID: 2</text>
  
  <!-- Granule 2 connection point -->
  <circle cx="400" cy="480" r="4" fill="#eb2f96"/>
  
  <!-- Granule 2 Details -->
  <rect x="130" y="520" width="120" height="50" rx="3" fill="#ffe7e0" stroke="#fa541c" stroke-width="1"/>
  <text x="190" y="550" font-family="Arial" font-size="12" text-anchor="middle" fill="#333">Metadata</text>
  
  <rect x="260" y="520" width="120" height="50" rx="3" fill="#ffe7e0" stroke="#fa541c" stroke-width="1"/>
  <text x="320" y="540" font-family="Arial" font-size="12" text-anchor="middle" fill="#333">Min-Max Values</text>
  <text x="320" y="560" font-family="Arial" font-size="10" text-anchor="middle" fill="#333">Min: 1001, Max: 2000</text>
  
  <!-- Min-max connection point -->
  <circle cx="320" cy="520" r="4" fill="#1890ff"/>
  
  <rect x="390" y="520" width="280" height="50" rx="3" fill="#ffe7e0" stroke="#fa541c" stroke-width="1"/>
  <text x="530" y="550" font-family="Arial" font-size="12" text-anchor="middle" fill="#333">Raw Data (8,192 rows)</text>

  <!-- Granule 3 -->
  <rect x="120" y="590" width="560" height="10" rx="5" fill="#f6ffed" stroke="#52c41a" stroke-width="1"/>
  <!-- Granule 3 connection point -->
  <circle cx="600" cy="590" r="4" fill="#eb2f96"/>

  <!-- Mark Connections - dotted lines from marks to granules -->
  <line x1="200" y1="300" x2="200" y2="370" stroke="#eb2f96" stroke-width="2" stroke-dasharray="5,3"/>
  <line x1="400" y1="300" x2="400" y2="480" stroke="#eb2f96" stroke-width="2" stroke-dasharray="5,3"/>
  <line x1="600" y1="300" x2="600" y2="590" stroke="#eb2f96" stroke-width="2" stroke-dasharray="5,3"/>

  <!-- Index Connections - dotted lines from index to min-max values -->
  <line x1="200" y1="210" x2="320" y2="410" stroke="#1890ff" stroke-width="2" stroke-dasharray="5,3"/>
  <line x1="400" y1="210" x2="320" y2="520" stroke="#1890ff" stroke-width="2" stroke-dasharray="5,3"/>

  <!-- Legend -->
  <rect x="100" y="620" width="600" height="70" rx="5" fill="#f0f2f5" stroke="#333" stroke-width="1"/>
  <text x="120" y="645" font-family="Arial" font-size="14" font-weight="bold" fill="#333">Legend:</text>
  
  <rect x="120" y="655" width="20" height="20" rx="3" fill="#e6f7ff" stroke="#1890ff" stroke-width="2"/>
  <text x="150" y="670" font-family="Arial" font-size="12" fill="#333">Primary Index (.idx) - Stores min/max values per granule</text>
  
  <rect x="400" y="655" width="20" height="20" rx="3" fill="#fff0f6" stroke="#eb2f96" stroke-width="2"/>
  <text x="430" y="670" font-family="Arial" font-size="12" fill="#333">Mark Files (.mrk) - Stores offsets to locate granules</text>
</svg>
