<?xml version="1.0" encoding="UTF-8"?>
<svg xmlns="http://www.w3.org/2000/svg" viewBox="0 0 1000 1200" font-family="Arial, sans-serif">
  <!-- Background -->
  <rect width="1000" height="1200" fill="#f9f9fa"/>
  
  <!-- Title Section -->
  <rect x="50" y="30" width="900" height="100" rx="10" fill="#336791"/>
  <text x="500" y="85" font-size="40" font-weight="bold" text-anchor="middle" fill="white">Event Sourcing with PostgreSQL</text>
  <text x="500" y="115" font-size="20" text-anchor="middle" fill="white">Storing domain events as the source of truth</text>
  
  <!-- PostgreSQL Logo -->
  <g transform="translate(100, 80)">
    <!-- PostgreSQL Elephant simplified -->
    <circle cx="0" cy="0" r="30" fill="#ffffff"/>
    <path d="M-5,-15 Q0,-25 5,-15 M-15,5 Q-20,15 -10,10 M15,5 Q20,15 10,10 M-10,5 Q0,20 10,5 Q0,-5 -10,5" stroke="#336791" stroke-width="3" fill="none"/>
  </g>
  
  <!-- Section 1: Schema Section -->
  <rect x="50" y="160" width="900" height="240" rx="10" fill="#eaf2f8"/>
  <text x="65" y="190" font-size="28" font-weight="bold" fill="#333">PostgreSQL Schema for Event Store</text>
  
  <!-- Schema Code Block -->
  <rect x="65" y="210" width="870" height="170" rx="5" fill="#ffffff" stroke="#ddd" stroke-width="1"/>
  <text x="85" y="240" font-size="16" font-family="Consolas, monospace" fill="#333">CREATE TABLE order_events (</text>
  <text x="105" y="265" font-size="16" font-family="Consolas, monospace" fill="#333">order_id BIGINT NOT NULL,</text>
  <text x="105" y="290" font-size="16" font-family="Consolas, monospace" fill="#333">event_time TIMESTAMP NOT NULL DEFAULT NOW(),</text>
  <text x="105" y="315" font-size="16" font-family="Consolas, monospace" fill="#333">event_type TEXT NOT NULL, -- 'Created', 'ItemAdded', etc.</text>
  <text x="105" y="340" font-size="16" font-family="Consolas, monospace" fill="#333">event_data JSONB NOT NULL, -- JSON payload with details</text>
  <text x="105" y="365" font-size="16" font-family="Consolas, monospace" fill="#333">event_id BIGSERIAL PRIMARY KEY</text>
  <text x="85" y="390" font-size="16" font-family="Consolas, monospace" fill="#333">);</text>
  
  <!-- Section 2: Event Flow Diagram -->
  <rect x="50" y="430" width="900" height="270" rx="10" fill="#ffffff" stroke="#336791" stroke-width="2"/>
  <text x="65" y="460" font-size="28" font-weight="bold" fill="#336791">Event Flow in Order Processing</text>
  
  <!-- Flow Diagram -->
  <g transform="translate(100, 490)">
    <!-- Boxes -->
    <rect x="0" y="0" width="150" height="60" rx="5" fill="#eaf2f8" stroke="#336791" stroke-width="2"/>
    <text x="75" y="35" font-size="16" text-anchor="middle" fill="#333">Order Created</text>
    
    <rect x="220" y="0" width="150" height="60" rx="5" fill="#eaf2f8" stroke="#336791" stroke-width="2"/>
    <text x="295" y="35" font-size="16" text-anchor="middle" fill="#333">Item Added</text>
    
    <rect x="440" y="0" width="150" height="60" rx="5" fill="#eaf2f8" stroke="#336791" stroke-width="2"/>
    <text x="515" y="35" font-size="16" text-anchor="middle" fill="#333">Item Removed</text>
    
    <rect x="660" y="0" width="150" height="60" rx="5" fill="#eaf2f8" stroke="#336791" stroke-width="2"/>
    <text x="735" y="35" font-size="16" text-anchor="middle" fill="#333">Item Added</text>
    
    <!-- Event Storage Box -->
    <rect x="0" y="120" width="810" height="100" rx="5" fill="#f5f5dc" stroke="#336791" stroke-width="2"/>
    <text x="405" y="145" font-size="18" text-anchor="middle" font-weight="bold" fill="#333">Event Store (PostgreSQL)</text>
    <text x="405" y="175" font-size="14" text-anchor="middle" fill="#333">order_events table</text>
    <text x="405" y="200" font-size="14" text-anchor="middle" fill="#333">Immutable, append-only events</text>
    
    <!-- Arrows -->
    <line x1="75" y1="60" x2="75" y2="120" stroke="#336791" stroke-width="2" stroke-dasharray="5,5"/>
    <line x1="295" y1="60" x2="295" y2="120" stroke="#336791" stroke-width="2" stroke-dasharray="5,5"/>
    <line x1="515" y1="60" x2="515" y2="120" stroke="#336791" stroke-width="2" stroke-dasharray="5,5"/>
    <line x1="735" y1="60" x2="735" y2="120" stroke="#336791" stroke-width="2" stroke-dasharray="5,5"/>
    
    <!-- Event Labels -->
    <text x="75" y="95" font-size="14" text-anchor="middle" fill="#e74c3c" font-style="italic">status: Pending</text>
    <text x="295" y="95" font-size="14" text-anchor="middle" fill="#e74c3c" font-style="italic">item_id: 123, qty: 2</text>
    <text x="515" y="95" font-size="14" text-anchor="middle" fill="#e74c3c" font-style="italic">item_id: 123, qty: 2</text>
    <text x="735" y="95" font-size="14" text-anchor="middle" fill="#e74c3c" font-style="italic">item_id: 789, qty: 1</text>
    
    <!-- Connecting arrows -->
    <line x1="150" y1="30" x2="220" y2="30" stroke="#336791" stroke-width="2"/>
    <polygon points="215,25 220,30 215,35" fill="#336791"/>
    
    <line x1="370" y1="30" x2="440" y2="30" stroke="#336791" stroke-width="2"/>
    <polygon points="435,25 440,30 435,35" fill="#336791"/>
    
    <line x1="590" y1="30" x2="660" y2="30" stroke="#336791" stroke-width="2"/>
    <polygon points="655,25 660,30 655,35" fill="#336791"/>
  </g>
  
  <!-- Section 3: Data Table -->
  <rect x="50" y="730" width="900" height="350" rx="10" fill="#ffffff" stroke="#336791" stroke-width="2"/>
  <text x="65" y="760" font-size="28" font-weight="bold" fill="#336791">Event Store Data Example (order_events)</text>
  
  <!-- Table Headers -->
  <rect x="65" y="780" width="100" height="40" fill="#336791"/>
  <rect x="165" y="780" width="100" height="40" fill="#336791"/>
  <rect x="265" y="780" width="150" height="40" fill="#336791"/>
  <rect x="415" y="780" width="120" height="40" fill="#336791"/>
  <rect x="535" y="780" width="350" height="40" fill="#336791"/>
  
  <text x="115" y="805" font-size="14" text-anchor="middle" fill="white">event_id</text>
  <text x="215" y="805" font-size="14" text-anchor="middle" fill="white">order_id</text>
  <text x="340" y="805" font-size="14" text-anchor="middle" fill="white">event_time</text>
  <text x="475" y="805" font-size="14" text-anchor="middle" fill="white">event_type</text>
  <text x="710" y="805" font-size="14" text-anchor="middle" fill="white">event_data</text>
  
  <!-- Table Rows (Order 1) -->
  <rect x="65" y="820" width="100" height="40" fill="#eaf2f8" stroke="#ddd" stroke-width="1"/>
  <rect x="165" y="820" width="100" height="40" fill="#eaf2f8" stroke="#ddd" stroke-width="1"/>
  <rect x="265" y="820" width="150" height="40" fill="#eaf2f8" stroke="#ddd" stroke-width="1"/>
  <rect x="415" y="820" width="120" height="40" fill="#eaf2f8" stroke="#ddd" stroke-width="1"/>
  <rect x="535" y="820" width="350" height="40" fill="#eaf2f8" stroke="#ddd" stroke-width="1"/>
  
  <text x="115" y="845" font-size="14" text-anchor="middle" fill="#333">1</text>
  <text x="215" y="845" font-size="14" text-anchor="middle" fill="#333">1</text>
  <text x="340" y="845" font-size="14" text-anchor="middle" fill="#333">2024-05-17 10:00:00</text>
  <text x="475" y="845" font-size="14" text-anchor="middle" fill="#333">Created</text>
  <text x="710" y="845" font-size="14" text-anchor="middle" fill="#333">{"status": "Pending", "total": 100.0}</text>
  
  <rect x="65" y="860" width="100" height="40" fill="#ffffff" stroke="#ddd" stroke-width="1"/>
  <rect x="165" y="860" width="100" height="40" fill="#ffffff" stroke="#ddd" stroke-width="1"/>
  <rect x="265" y="860" width="150" height="40" fill="#ffffff" stroke="#ddd" stroke-width="1"/>
  <rect x="415" y="860" width="120" height="40" fill="#ffffff" stroke="#ddd" stroke-width="1"/>
  <rect x="535" y="860" width="350" height="40" fill="#ffffff" stroke="#ddd" stroke-width="1"/>
  
  <text x="115" y="885" font-size="14" text-anchor="middle" fill="#333">2</text>
  <text x="215" y="885" font-size="14" text-anchor="middle" fill="#333">1</text>
  <text x="340" y="885" font-size="14" text-anchor="middle" fill="#333">2024-05-17 10:05:00</text>
  <text x="475" y="885" font-size="14" text-anchor="middle" fill="#333">ItemAdded</text>
  <text x="710" y="885" font-size="14" text-anchor="middle" fill="#333">{"item_id": "123", "quantity": 2}</text>
  
  <rect x="65" y="900" width="100" height="40" fill="#eaf2f8" stroke="#ddd" stroke-width="1"/>
  <rect x="165" y="900" width="100" height="40" fill="#eaf2f8" stroke="#ddd" stroke-width="1"/>
  <rect x="265" y="900" width="150" height="40" fill="#eaf2f8" stroke="#ddd" stroke-width="1"/>
  <rect x="415" y="900" width="120" height="40" fill="#eaf2f8" stroke="#ddd" stroke-width="1"/>
  <rect x="535" y="900" width="350" height="40" fill="#eaf2f8" stroke="#ddd" stroke-width="1"/>
  
  <text x="115" y="925" font-size="14" text-anchor="middle" fill="#333">3</text>
  <text x="215" y="925" font-size="14" text-anchor="middle" fill="#333">1</text>
  <text x="340" y="925" font-size="14" text-anchor="middle" fill="#333">2024-05-17 10:10:00</text>
  <text x="475" y="925" font-size="14" text-anchor="middle" fill="#333">ItemAdded</text>
  <text x="710" y="925" font-size="14" text-anchor="middle" fill="#333">{"item_id": "456", "quantity": 1}</text>
  
  <rect x="65" y="940" width="100" height="40" fill="#ffffff" stroke="#ddd" stroke-width="1"/>
  <rect x="165" y="940" width="100" height="40" fill="#ffffff" stroke="#ddd" stroke-width="1"/>
  <rect x="265" y="940" width="150" height="40" fill="#ffffff" stroke="#ddd" stroke-width="1"/>
  <rect x="415" y="940" width="120" height="40" fill="#ffffff" stroke="#ddd" stroke-width="1"/>
  <rect x="535" y="940" width="350" height="40" fill="#ffffff" stroke="#ddd" stroke-width="1"/>
  
  <text x="115" y="965" font-size="14" text-anchor="middle" fill="#333">4</text>
  <text x="215" y="965" font-size="14" text-anchor="middle" fill="#333">1</text>
  <text x="340" y="965" font-size="14" text-anchor="middle" fill="#333">2024-05-17 10:20:00</text>
  <text x="475" y="965" font-size="14" text-anchor="middle" fill="#333">ItemRemoved</text>
  <text x="710" y="965" font-size="14" text-anchor="middle" fill="#333">{"item_id": "123", "quantity": 2}</text>
  
  <rect x="65" y="980" width="100" height="40" fill="#eaf2f8" stroke="#ddd" stroke-width="1"/>
  <rect x="165" y="980" width="100" height="40" fill="#eaf2f8" stroke="#ddd" stroke-width="1"/>
  <rect x="265" y="980" width="150" height="40" fill="#eaf2f8" stroke="#ddd" stroke-width="1"/>
  <rect x="415" y="980" width="120" height="40" fill="#eaf2f8" stroke="#ddd" stroke-width="1"/>
  <rect x="535" y="980" width="350" height="40" fill="#eaf2f8" stroke="#ddd" stroke-width="1"/>
  
  <text x="115" y="1005" font-size="14" text-anchor="middle" fill="#333">5</text>
  <text x="215" y="1005" font-size="14" text-anchor="middle" fill="#333">1</text>
  <text x="340" y="1005" font-size="14" text-anchor="middle" fill="#333">2024-05-17 10:30:00</text>
  <text x="475" y="1005" font-size="14" text-anchor="middle" fill="#333">ItemAdded</text>
  <text x="710" y="1005" font-size="14" text-anchor="middle" fill="#333">{"item_id": "789", "quantity": 1}</text>
  
  <!-- Order 2 row -->
  <rect x="65" y="1020" width="100" height="40" fill="#ffffff" stroke="#ddd" stroke-width="1"/>
  <rect x="165" y="1020" width="100" height="40" fill="#ffffff" stroke="#ddd" stroke-width="1"/>
  <rect x="265" y="1020" width="150" height="40" fill="#ffffff" stroke="#ddd" stroke-width="1"/>
  <rect x="415" y="1020" width="120" height="40" fill="#ffffff" stroke="#ddd" stroke-width="1"/>
  <rect x="535" y="1020" width="350" height="40" fill="#ffffff" stroke="#ddd" stroke-width="1"/>
  
  <text x="115" y="1045" font-size="14" text-anchor="middle" fill="#333">6</text>
  <text x="215" y="1045" font-size="14" text-anchor="middle" fill="#333">2</text>
  <text x="340" y="1045" font-size="14" text-anchor="middle" fill="#333">2024-05-17 11:00:00</text>
  <text x="475" y="1045" font-size="14" text-anchor="middle" fill="#333">Created</text>
  <text x="710" y="1045" font-size="14" text-anchor="middle" fill="#333">{"status": "Pending", "total": 500.0}</text>
  
</svg>