<?xml version="1.0" encoding="UTF-8"?>
<svg xmlns="http://www.w3.org/2000/svg" viewBox="0 0 1000 1400" font-family="Arial, sans-serif">
  <!-- Background -->
  <rect width="1000" height="1400" fill="#f9f9fa"/>
  
  <!-- Title Section -->
  <rect x="50" y="30" width="900" height="100" rx="10" fill="#4a6fa5"/>
  <text x="500" y="85" font-size="40" font-weight="bold" text-anchor="middle" fill="white">Event Sourcing Pattern in ClickHouse</text>
  <text x="500" y="115" font-size="20" text-anchor="middle" fill="white">Storing the complete history of domain events as source of truth</text>
  
  <!-- Section 1: Concept Explanation -->
  <rect x="50" y="160" width="900" height="220" rx="10" fill="#e6f0fa"/>
  <text x="65" y="190" font-size="28" font-weight="bold" fill="#333">What is Event Sourcing?</text>
  
  <!-- Concept Explanation -->
  <g transform="translate(65, 210)">
    <text x="0" y="0" font-size="18" fill="#333">• Instead of storing just the current state, store a complete history of all events (changes)</text>
    <text x="0" y="35" font-size="18" fill="#333">• Events are immutable facts that have occurred and can never be changed</text>
    <text x="0" y="70" font-size="18" fill="#333">• Current state is derived by replaying events in order</text>
    <text x="0" y="105" font-size="18" fill="#333">• Perfect audit trail built into the design</text>
    <text x="0" y="140" font-size="18" fill="#333">• Natural fit for ClickHouse's immutable storage model</text>
  </g>
  
  <!-- Section 2: Example Order Lifecycle -->
  <rect x="50" y="410" width="900" height="120" rx="10" fill="#ffffff" stroke="#4a6fa5" stroke-width="2"/>
  <text x="65" y="440" font-size="28" font-weight="bold" fill="#4a6fa5">Example: Order Lifecycle Events</text>
  
  <g transform="translate(65, 470)">
    <text x="0" y="0" font-size="18" fill="#333">Consider an e-commerce platform where an order goes through several states:</text>
    <text x="0" y="35" font-size="18" fill="#333">OrderCreated → PaymentReceived → OrderShipped → OrderDelivered</text>
  </g>
  
  <!-- Section 3: Event Flow Diagram -->
  <rect x="50" y="560" width="900" height="240" rx="10" fill="#ffffff" stroke="#4a6fa5" stroke-width="2"/>
  <text x="65" y="590" font-size="24" font-weight="bold" fill="#4a6fa5">Event Flow in Order Process</text>
  
  <!-- Flow Diagram -->
  <g transform="translate(100, 620)">
    <!-- Boxes -->
    <rect x="0" y="0" width="150" height="60" rx="5" fill="#f0f8ff" stroke="#4a6fa5" stroke-width="2"/>
    <text x="75" y="35" font-size="16" text-anchor="middle" fill="#333">Create Order</text>
    
    <rect x="220" y="0" width="150" height="60" rx="5" fill="#f0f8ff" stroke="#4a6fa5" stroke-width="2"/>
    <text x="295" y="35" font-size="16" text-anchor="middle" fill="#333">Process Payment</text>
    
    <rect x="440" y="0" width="150" height="60" rx="5" fill="#f0f8ff" stroke="#4a6fa5" stroke-width="2"/>
    <text x="515" y="35" font-size="16" text-anchor="middle" fill="#333">Ship Order</text>
    
    <rect x="660" y="0" width="150" height="60" rx="5" fill="#f0f8ff" stroke="#4a6fa5" stroke-width="2"/>
    <text x="735" y="35" font-size="16" text-anchor="middle" fill="#333">Deliver Order</text>
    
    <!-- Event Storage Box -->
    <rect x="0" y="120" width="810" height="60" rx="5" fill="#ffe6cc" stroke="#d79b00" stroke-width="2"/>
    <text x="405" y="155" font-size="18" text-anchor="middle" font-weight="bold" fill="#333">Event Store (ClickHouse)</text>
    
    <!-- Arrows -->
    <line x1="75" y1="60" x2="75" y2="120" stroke="#4a6fa5" stroke-width="2" stroke-dasharray="5,5"/>
    <line x1="295" y1="60" x2="295" y2="120" stroke="#4a6fa5" stroke-width="2" stroke-dasharray="5,5"/>
    <line x1="515" y1="60" x2="515" y2="120" stroke="#4a6fa5" stroke-width="2" stroke-dasharray="5,5"/>
    <line x1="735" y1="60" x2="735" y2="120" stroke="#4a6fa5" stroke-width="2" stroke-dasharray="5,5"/>
    
    <!-- Event Labels -->
    <text x="75" y="100" font-size="14" text-anchor="middle" fill="#d64161" font-style="italic">OrderCreated</text>
    <text x="295" y="100" font-size="14" text-anchor="middle" fill="#d64161" font-style="italic">PaymentReceived</text>
    <text x="515" y="100" font-size="14" text-anchor="middle" fill="#d64161" font-style="italic">OrderShipped</text>
    <text x="735" y="100" font-size="14" text-anchor="middle" fill="#d64161" font-style="italic">OrderDelivered</text>
    
    <!-- Connecting arrows -->
    <line x1="150" y1="30" x2="220" y2="30" stroke="#4a6fa5" stroke-width="2"/>
    <polygon points="215,25 220,30 215,35" fill="#4a6fa5"/>
    
    <line x1="370" y1="30" x2="440" y2="30" stroke="#4a6fa5" stroke-width="2"/>
    <polygon points="435,25 440,30 435,35" fill="#4a6fa5"/>
    
    <line x1="590" y1="30" x2="660" y2="30" stroke="#4a6fa5" stroke-width="2"/>
    <polygon points="655,25 660,30 655,35" fill="#4a6fa5"/>
  </g>
  
  <!-- Section 4: ClickHouse Schema -->
  <rect x="50" y="830" width="900" height="210" rx="10" fill="#ffffff" stroke="#4a6fa5" stroke-width="2"/>
  <text x="65" y="860" font-size="24" font-weight="bold" fill="#4a6fa5">ClickHouse Schema for Event Store</text>
  
  <!-- Schema Code Block -->
  <rect x="65" y="880" width="870" height="140" rx="5" fill="#f5f5f5" stroke="#ddd" stroke-width="1"/>
  <text x="85" y="910" font-size="16" font-family="Consolas, monospace" fill="#333">CREATE TABLE order_events (</text>
  <text x="105" y="935" font-size="16" font-family="Consolas, monospace" fill="#333">order_id UInt64,</text>
  <text x="105" y="960" font-size="16" font-family="Consolas, monospace" fill="#333">event_time DateTime,</text>
  <text x="105" y="985" font-size="16" font-family="Consolas, monospace" fill="#333">event_type String,        -- 'OrderCreated', 'PaymentReceived', etc.</text>
  <text x="105" y="1010" font-size="16" font-family="Consolas, monospace" fill="#333">event_data String,       -- JSON payload with event details</text>
  <text x="85" y="1035" font-size="16" font-family="Consolas, monospace" fill="#333">) ENGINE = MergeTree() ORDER BY (order_id, event_time);</text>
  
  <!-- Section 5: Example Data Table -->
  <rect x="50" y="1070" width="900" height="300" rx="10" fill="#ffffff" stroke="#4a6fa5" stroke-width="2"/>
  <text x="65" y="1100" font-size="24" font-weight="bold" fill="#4a6fa5">Example Events Data</text>
  
  <!-- Table Headers -->
  <rect x="65" y="1120" width="120" height="40" fill="#4a6fa5"/>
  <rect x="185" y="1120" width="150" height="40" fill="#4a6fa5"/>
  <rect x="335" y="1120" width="180" height="40" fill="#4a6fa5"/>
  <rect x="515" y="1120" width="390" height="40" fill="#4a6fa5"/>
  
  <text x="125" y="1145" font-size="16" text-anchor="middle" fill="white">order_id</text>
  <text x="260" y="1145" font-size="16" text-anchor="middle" fill="white">event_time</text>
  <text x="425" y="1145" font-size="16" text-anchor="middle" fill="white">event_type</text>
  <text x="710" y="1145" font-size="16" text-anchor="middle" fill="white">event_data</text>
  
  <!-- Table Rows -->
  <rect x="65" y="1160" width="120" height="40" fill="#f9f9f9" stroke="#ddd" stroke-width="1"/>
  <rect x="185" y="1160" width="150" height="40" fill="#f9f9f9" stroke="#ddd" stroke-width="1"/>
  <rect x="335" y="1160" width="180" height="40" fill="#f9f9f9" stroke="#ddd" stroke-width="1"/>
  <rect x="515" y="1160" width="390" height="40" fill="#f9f9f9" stroke="#ddd" stroke-width="1"/>
  
  <text x="125" y="1185" font-size="14" text-anchor="middle" fill="#333">1001</text>
  <text x="260" y="1185" font-size="14" text-anchor="middle" fill="#333">2024-05-10 10:30:00</text>
  <text x="425" y="1185" font-size="14" text-anchor="middle" fill="#333">OrderCreated</text>
  <text x="710" y="1185" font-size="14" text-anchor="middle" fill="#333">{"customer_id": 42, "items": [{"id": 101, "qty": 2}]}</text>
  
  <rect x="65" y="1200" width="120" height="40" fill="#ffffff" stroke="#ddd" stroke-width="1"/>
  <rect x="185" y="1200" width="150" height="40" fill="#ffffff" stroke="#ddd" stroke-width="1"/>
  <rect x="335" y="1200" width="180" height="40" fill="#ffffff" stroke="#ddd" stroke-width="1"/>
  <rect x="515" y="1200" width="390" height="40" fill="#ffffff" stroke="#ddd" stroke-width="1"/>
  
  <text x="125" y="1225" font-size="14" text-anchor="middle" fill="#333">1001</text>
  <text x="260" y="1225" font-size="14" text-anchor="middle" fill="#333">2024-05-10 10:45:20</text>
  <text x="425" y="1225" font-size="14" text-anchor="middle" fill="#333">PaymentReceived</text>
  <text x="710" y="1225" font-size="14" text-anchor="middle" fill="#333">{"payment_id": "pmt_123", "amount": 79.98}</text>
  
  <rect x="65" y="1240" width="120" height="40" fill="#f9f9f9" stroke="#ddd" stroke-width="1"/>
  <rect x="185" y="1240" width="150" height="40" fill="#f9f9f9" stroke="#ddd" stroke-width="1"/>
  <rect x="335" y="1240" width="180" height="40" fill="#f9f9f9" stroke="#ddd" stroke-width="1"/>
  <rect x="515" y="1240" width="390" height="40" fill="#f9f9f9" stroke="#ddd" stroke-width="1"/>
  
  <text x="125" y="1265" font-size="14" text-anchor="middle" fill="#333">1001</text>
  <text x="260" y="1265" font-size="14" text-anchor="middle" fill="#333">2024-05-11 09:15:30</text>
  <text x="425" y="1265" font-size="14" text-anchor="middle" fill="#333">OrderShipped</text>
  <text x="710" y="1265" font-size="14" text-anchor="middle" fill="#333">{"tracking_id": "trk_789", "carrier": "FastShip"}</text>
  
  <rect x="65" y="1280" width="120" height="40" fill="#ffffff" stroke="#ddd" stroke-width="1"/>
  <rect x="185" y="1280" width="150" height="40" fill="#ffffff" stroke="#ddd" stroke-width="1"/>
  <rect x="335" y="1280" width="180" height="40" fill="#ffffff" stroke="#ddd" stroke-width="1"/>
  <rect x="515" y="1280" width="390" height="40" fill="#ffffff" stroke="#ddd" stroke-width="1"/>
  
  <text x="125" y="1305" font-size="14" text-anchor="middle" fill="#333">1001</text>
  <text x="260" y="1305" font-size="14" text-anchor="middle" fill="#333">2024-05-14 16:20:45</text>
  <text x="425" y="1305" font-size="14" text-anchor="middle" fill="#333">OrderDelivered</text>
  <text x="710" y="1305" font-size="14" text-anchor="middle" fill="#333">{"signature": "John Doe", "delivery_notes": null}</text>
  
  <!-- Footer -->
  <text x="500" y="1360" font-size="16" text-anchor="middle" fill="#666">
    By storing all events, we can reconstruct the complete history and current state of any order
  </text>
  <text x="500" y="1380" font-size="16" text-anchor="middle" fill="#666">
    ClickHouse's immutable design makes it a natural fit for event sourcing patterns
  </text>
</svg>
