<svg viewBox="0 0 800 600" xmlns="http://www.w3.org/2000/svg">
  <!-- Background -->
  <rect width="800" height="600" fill="#ffffff"/>
  
  <!-- Title -->
  <text x="400" y="50" font-family="Arial" font-size="24" font-weight="bold" text-anchor="middle" fill="#333">
    ClickHouse Granules: The Building Blocks of Performance
  </text>

  <!-- Granule Definition Section -->
  <rect x="50" y="80" width="700" height="100" rx="10" fill="#e6f7ff" stroke="#1890ff" stroke-width="2"/>
  <text x="400" y="110" font-family="Arial" font-size="18" font-weight="bold" text-anchor="middle" fill="#1890ff">
    What is a Granule?
  </text>
  <text x="400" y="140" font-family="Arial" font-size="14" text-anchor="middle" fill="#333">
    A granule is the smallest indivisible data set that ClickHouse reads when executing a query
  </text>
  <text x="400" y="160" font-family="Arial" font-size="14" text-anchor="middle" fill="#333">
    Typically contains 8,192 rows (configurable via max_block_size and index_granularity settings)
  </text>

  <!-- Data Storage Visualization -->
  <rect x="50" y="200" width="700" height="150" rx="10" fill="#fff7e6" stroke="#fa8c16" stroke-width="2"/>
  
  <!-- Column files -->
  <rect x="100" y="230" width="600" height="100" fill="#ffd591" stroke="#fa8c16"/>
  
  <!-- Granule divisions -->
  <line x1="175" y1="230" x2="175" y2="330" stroke="#fa8c16" stroke-width="2"/>
  <line x1="250" y1="230" x2="250" y2="330" stroke="#fa8c16" stroke-width="2"/>
  <line x1="325" y1="230" x2="325" y2="330" stroke="#fa8c16" stroke-width="2"/>
  <line x1="400" y1="230" x2="400" y2="330" stroke="#fa8c16" stroke-width="2"/>
  <line x1="475" y1="230" x2="475" y2="330" stroke="#fa8c16" stroke-width="2"/>
  <line x1="550" y1="230" x2="550" y2="330" stroke="#fa8c16" stroke-width="2"/>
  <line x1="625" y1="230" x2="625" y2="330" stroke="#fa8c16" stroke-width="2"/>
  
  <!-- Granule Labels -->
  <text x="137.5" y="280" font-family="Arial" font-size="12" text-anchor="middle" fill="#333" font-weight="bold">Granule 1</text>
  <text x="212.5" y="280" font-family="Arial" font-size="12" text-anchor="middle" fill="#333" font-weight="bold">Granule 2</text>
  <text x="287.5" y="280" font-family="Arial" font-size="12" text-anchor="middle" fill="#333" font-weight="bold">Granule 3</text>
  <text x="362.5" y="280" font-family="Arial" font-size="12" text-anchor="middle" fill="#333" font-weight="bold">Granule 4</text>
  <text x="437.5" y="280" font-family="Arial" font-size="12" text-anchor="middle" fill="#333" font-weight="bold">Granule 5</text>
  <text x="512.5" y="280" font-family="Arial" font-size="12" text-anchor="middle" fill="#333" font-weight="bold">Granule 6</text>
  <text x="587.5" y="280" font-family="Arial" font-size="12" text-anchor="middle" fill="#333" font-weight="bold">Granule 7</text>
  <text x="662.5" y="280" font-family="Arial" font-size="12" text-anchor="middle" fill="#333" font-weight="bold">Granule 8</text>

  <!-- Benefits of Granules Section -->
  <rect x="50" y="370" width="340" height="210" rx="10" fill="#f9f0ff" stroke="#722ed1" stroke-width="2"/>
  <text x="220" y="395" font-family="Arial" font-size="18" font-weight="bold" text-anchor="middle" fill="#722ed1">
    Benefits of Granules
  </text>
  
  <circle cx="80" cy="430" r="8" fill="#722ed1"/>
  <text x="100" y="435" font-family="Arial" font-size="14" fill="#333">Parallel Query Processing</text>
  
  <circle cx="80" cy="470" r="8" fill="#722ed1"/>
  <text x="100" y="475" font-family="Arial" font-size="14" fill="#333">Efficient Data Skipping</text>
  
  <circle cx="80" cy="510" r="8" fill="#722ed1"/>
  <text x="100" y="515" font-family="Arial" font-size="14" fill="#333">Optimized I/O Operations</text>
  
  <circle cx="80" cy="550" r="8" fill="#722ed1"/>
  <text x="100" y="555" font-family="Arial" font-size="14" fill="#333">Balanced Memory Usage</text>

  <!-- Practical Example -->
  <rect x="410" y="370" width="340" height="210" rx="10" fill="#e6fffb" stroke="#13c2c2" stroke-width="2"/>
  <text x="580" y="395" font-family="Arial" font-size="18" font-weight="bold" text-anchor="middle" fill="#13c2c2">
    Granules in Action
  </text>

  <!-- Query example -->
  <rect x="430" y="420" width="300" height="70" rx="5" fill="#b5f5ec" stroke="#13c2c2"/>
  <text x="440" y="440"  font-size="12" fill="#333" font-family="monospace">
    SELECT SUM(sales)
  </text>
  <text x="440" y="460" font-size="12" fill="#333" font-family="monospace">
    FROM transactions
  </text>
  <text x="440" y="480"  font-size="12" fill="#333" font-family="monospace">
    WHERE date > '2023-01-01'
  </text>

  <!-- Granule execution illustration -->
  <rect x="430" y="500" width="60" height="25" fill="#13c2c2" opacity="0.8"/>
  <rect x="495" y="500" width="60" height="25" fill="#e6fffb" stroke="#13c2c2"/>
  <rect x="560" y="500" width="60" height="25" fill="#13c2c2" opacity="0.8"/>
  <rect x="625" y="500" width="60" height="25" fill="#e6fffb" stroke="#13c2c2"/>
  
  <rect x="430" y="530" width="60" height="25" fill="#e6fffb" stroke="#13c2c2"/>
  <rect x="495" y="530" width="60" height="25" fill="#13c2c2" opacity="0.8"/>
  <rect x="560" y="530" width="60" height="25" fill="#e6fffb" stroke="#13c2c2"/>
  <rect x="625" y="530" width="60" height="25" fill="#13c2c2" opacity="0.8"/>

  <text x="590" y="570" font-family="Arial" font-size="12" fill="#333" text-anchor="middle">
    Only relevant granules are processed (colored)
  </text>

  <!-- Primary Index Relationship -->
  <line x1="175" y1="330" x2="175" y2="350" stroke="#333" stroke-width="1" stroke-dasharray="4,4"/>
  <line x1="250" y1="330" x2="250" y2="350" stroke="#333" stroke-width="1" stroke-dasharray="4,4"/>
  <line x1="325" y1="330" x2="325" y2="350" stroke="#333" stroke-width="1" stroke-dasharray="4,4"/>
  <line x1="400" y1="330" x2="400" y2="350" stroke="#333" stroke-width="1" stroke-dasharray="4,4"/>
  <line x1="475" y1="330" x2="475" y2="350" stroke="#333" stroke-width="1" stroke-dasharray="4,4"/>
  <line x1="550" y1="330" x2="550" y2="350" stroke="#333" stroke-width="1" stroke-dasharray="4,4"/>
  <line x1="625" y1="330" x2="625" y2="350" stroke="#333" stroke-width="1" stroke-dasharray="4,4"/>
  
  <rect x="100" y="350" width="600" height="20" fill="#52c41a" opacity="0.2"/>
  <text x="400" y="365" font-family="Arial" font-size="12" text-anchor="middle" fill="#333">
    Primary Index: One mark per granule for data skipping
  </text>
</svg>
