<?xml version="1.0" encoding="utf-8" standalone="yes"?>
<!DOCTYPE svg PUBLIC "-//W3C//DTD SVG 1.1//EN" "http://www.w3.org/Graphics/SVG/1.1/DTD/svg11.dtd">
<svg width="456" height="608" viewBox="0 0 456 608" style="fill:none;stroke:none;fill-rule:evenodd;clip-rule:evenodd;stroke-linecap:round;stroke-linejoin:round;stroke-miterlimit:1.5;" version="1.1" xmlns="http://www.w3.org/2000/svg" xmlns:xlink="http://www.w3.org/1999/xlink"><style class="text-font-style fontImports" data-font-family="Funnel Sans">@import url('https://fonts.googleapis.com/css2?family=Funnel+Sans:wght@300..800&amp;display=block');</style><rect id="" x="0" y="0" width="456" height="608" style="fill: #ffffff;"></rect><g id="items" style="isolation: isolate"><g id="blend" style="mix-blend-mode: normal"><g id="g-root-tf_dgpjco1fe7thp-fill" data-item-order="-277248"><g id="tf_dgpjco1fe7thp-fill" stroke="none" fill="#ffffff"><g><path d="M 0 0L 456 0L 456 608L 0 608Z"></path></g></g></g><g id="g-root-cp_1_bubble-1_1um69881fe7say-fill" data-item-order="-213782" transform="translate(38, 122)"><g id="cp_1_bubble-1_1um69881fe7say-fill" stroke="none" fill="#fff8b6"><g><path d="M 178 22L 10 22C 10.000001 15.3726 15.3726 9.999999 22 10L 166 10.000013C 172.627 10.000013 178 15.3726 178 22ZM 178 178L 178 22L 10 22.000015L 10.000003 178L 178 178ZM 10 178L 178 178L 178 182.0873C 178 186.8876 175.139 191.226 170.727 193.117L 98.727 223.9741C 95.7085 225.2678 92.2916 225.2678 89.273 223.9741L 17.273 193.117C 12.8608 191.226 10 186.8876 10 182.0873L 10 178Z"></path></g></g></g><g id="g-root-cp_3_bubble-3_1q6cr3s1fe7t38-fill" data-item-order="-213754" transform="translate(230, 122)"><g id="cp_3_bubble-3_1q6cr3s1fe7t38-fill" stroke="none" fill="#c8ffe5"><g><path d="M 178 22L 10 22C 10.000001 15.3726 15.3726 9.999999 22 10L 166 10.000013C 172.627 10.000013 178 15.3726 178 22ZM 178 178L 178 22L 10 22.000015L 10.000003 178L 178 178ZM 10 178L 178 178L 178 182.0873C 178 186.8876 175.139 191.226 170.727 193.117L 98.727 223.9741C 95.7085 225.2678 92.2916 225.2678 89.273 223.9741L 17.273 193.117C 12.8608 191.226 10 186.8876 10 182.0873L 10 178Z"></path></g></g></g><g id="g-root-cp_2_bubble-2_1hapquw1fe7tvy-fill" data-item-order="-213724" transform="translate(134, 323)"><g id="cp_2_bubble-2_1hapquw1fe7tvy-fill" stroke="none" fill="#e9ffb9"><g><path d="M 10.000001 212.999969L 178.000001 212.999998C 178.000001 219.627469 172.627001 224.999969 166.000001 224.999969L 22.000001 224.999969C 15.372601 224.999969 10 219.627369 10.000001 212.999969ZM 178 213L 178 57L 10 57.000015L 10.000003 213L 178 213ZM 178 56.944404L 10 56.944404L 10 52.857104C 10.000001 48.056804 12.8608 43.718304 17.273 41.827404L 89.273 10.970304C 92.2915 9.676604 95.7085 9.676604 98.727 10.970304L 170.727 41.827404C 175.139 43.718304 178 48.056804 178 52.857104L 178 56.944404Z"></path></g></g></g><g id="g-root-tx_complexd_1lqj8zc1fe7tvk-fill" data-item-order="0" transform="translate(86, 38)"><g id="tx_complexd_1lqj8zc1fe7tvk-fill" stroke="none" fill="#484848"><g><text style="font: bold 25px &quot;Shantell Sans&quot;, cursive; white-space: pre;" font-weight="bold" font-size="25px" font-family="'Shantell Sans', cursive"><tspan x="12.45" y="44.5" dominant-baseline="ideographic">Complex Data Types</tspan></text></g></g></g><g id="g-root-tx_arrays_18fp7p41fe7sap-fill" data-item-order="0" transform="translate(80, 134)"><g id="tx_arrays_18fp7p41fe7sap-fill" stroke="none" fill="#e0cb15"><g><text style="font: bold 20px &quot;Shantell Sans&quot;, cursive; white-space: pre;" font-weight="bold" font-size="20px" font-family="'Shantell Sans', cursive"><tspan x="16.23" y="35.5" dominant-baseline="ideographic">Arrays</tspan></text></g></g></g><g id="g-root-tx_tuples_1q886d41fe7s3o-fill" data-item-order="0" transform="translate(278, 134)"><g id="tx_tuples_1q886d41fe7s3o-fill" stroke="none" fill="#3cc583"><g><text style="font: bold 20px &quot;Shantell Sans&quot;, cursive; white-space: pre;" font-weight="bold" font-size="20px" font-family="'Shantell Sans', cursive"><tspan x="13.6" y="35.5" dominant-baseline="ideographic">Tuples</tspan></text></g></g></g><g id="g-root-tx_orderedl_zk27g81fe7t3e-fill" data-item-order="0" transform="translate(56, 170)"><g id="tx_orderedl_zk27g81fe7t3e-fill" stroke="none" fill="#e0cb15"><g><text style="font: 15px &quot;Shantell Sans&quot;, cursive; white-space: pre;" font-size="15px" font-family="'Shantell Sans', cursive"><tspan x="20.6" y="32" dominant-baseline="ideographic">Ordered list of </tspan><tspan x="16.43" y="50" dominant-baseline="ideographic">elements of the </tspan><tspan x="34.35" y="68" dominant-baseline="ideographic">same type.</tspan></text></g></g></g><g id="g-root-tx_ordereds_1hcl6481fe7swd-fill" data-item-order="0" transform="translate(236, 170)"><g id="tx_ordereds_1hcl6481fe7swd-fill" stroke="none" fill="#3cc583"><g><text style="font: 15px &quot;Shantell Sans&quot;, cursive; white-space: pre;" font-size="15px" font-family="'Shantell Sans', cursive"><tspan x="11.78" y="32" dominant-baseline="ideographic">Ordered sequence of </tspan><tspan x="35.13" y="50" dominant-baseline="ideographic">elements with </tspan><tspan x="31.7" y="68" dominant-baseline="ideographic">different types.</tspan></text></g></g></g><g id="g-root-ic_bull_zk27g81fe7t3f-fill" data-item-order="0" transform="translate(92, 242)"></g><g id="g-root-ic_tune_141r4u01fe7rbi-fill" data-item-order="0" transform="translate(284, 242)"></g><g id="g-root-ic_data_dfgl6g1fe7rbj-fill" data-item-order="0" transform="translate(188, 358)"></g><g id="g-root-tx_nested_1cyn3941fe7sow-fill" data-item-order="0" transform="translate(176, 430)"><g id="tx_nested_1cyn3941fe7sow-fill" stroke="none" fill="#92bd39"><g><text style="font: bold 20px &quot;Shantell Sans&quot;, cursive; white-space: pre;" font-weight="bold" font-size="20px" font-family="'Shantell Sans', cursive"><tspan x="15.26" y="35.5" dominant-baseline="ideographic">Nested</tspan></text></g></g></g><g id="g-root-tx_represen_14303081fe7thl-fill" data-item-order="0" transform="translate(146, 466)"><g id="tx_represen_14303081fe7thl-fill" stroke="none" fill="#92bd39"><g><text style="font: 15px &quot;Shantell Sans&quot;, cursive; white-space: pre;" font-size="15px" font-family="'Shantell Sans', cursive"><tspan x="12.39" y="32" dominant-baseline="ideographic">Represents a table </tspan><tspan x="29.39" y="50" dominant-baseline="ideographic">within a table </tspan><tspan x="46.2" y="68" dominant-baseline="ideographic">structure.</tspan></text></g></g></g><g id="g-root-tf_dgpjco1fe7thp-stroke" data-item-order="-277248"></g><g id="g-root-cp_1_bubble-1_1um69881fe7say-stroke" data-item-order="-213782" transform="translate(38, 122)"><g id="cp_1_bubble-1_1um69881fe7say-stroke" fill="none" stroke-linecap="round" stroke-linejoin="round" stroke-miterlimit="4" stroke="#ffffff" stroke-width="2"><g><path d="M 178 22C 178 15.3726 172.6274 10 166 10L 22 10C 15.3726 10 10 15.3726 10 22M 177.999985 177.999741L 177.999985 22M 10 177.999741L 10 22M 178 178L 178 182.0872C 178 186.8876 175.1392 191.226 170.727 193.117L 98.727 223.9741C 95.7085 225.2678 92.2916 225.2678 89.273 223.9741L 17.273 193.117C 12.8608 191.226 10 186.8876 10 182.0872L 10 178"></path></g></g></g><g id="g-root-cp_3_bubble-3_1q6cr3s1fe7t38-stroke" data-item-order="-213754" transform="translate(230, 122)"><g id="cp_3_bubble-3_1q6cr3s1fe7t38-stroke" fill="none" stroke-linecap="round" stroke-linejoin="round" stroke-miterlimit="4" stroke="#ffffff" stroke-width="2"><g><path d="M 178 22C 178 15.3726 172.6274 10 166 10L 22 10C 15.3726 10 10 15.3726 10 22M 177.999985 177.999741L 177.999985 22M 10 177.999741L 10 22M 178 178L 178 182.0872C 178 186.8876 175.1392 191.226 170.727 193.117L 98.727 223.9741C 95.7085 225.2678 92.2916 225.2678 89.273 223.9741L 17.273 193.117C 12.8608 191.226 10 186.8876 10 182.0872L 10 178"></path></g></g></g><g id="g-root-cp_2_bubble-2_1hapquw1fe7tvy-stroke" data-item-order="-213724" transform="translate(134, 323)"><g id="cp_2_bubble-2_1hapquw1fe7tvy-stroke" fill="none" stroke-linecap="round" stroke-linejoin="round" stroke-miterlimit="4" stroke="#ffffff" stroke-width="2"><g><path d="M 10.000001 212.999969C 10.000001 219.627369 15.372601 224.999969 22.000001 224.999969L 166.000001 224.999969C 172.627401 224.999969 178.000001 219.627369 178.000001 212.999969M 177.999985 212.999741L 177.999985 57M 10 212.999741L 10 57M 10 56.944404L 10 52.857104C 10 48.056804 12.8608 43.718304 17.273 41.827404L 89.273 10.970304C 92.2915 9.676604 95.7085 9.676604 98.727 10.970304L 170.727 41.827404C 175.1392 43.718304 178 48.056804 178 52.857104L 178 56.944404"></path></g></g></g><g id="g-root-tx_complexd_1lqj8zc1fe7tvk-stroke" data-item-order="0" transform="translate(86, 38)"></g><g id="g-root-tx_arrays_18fp7p41fe7sap-stroke" data-item-order="0" transform="translate(80, 134)"></g><g id="g-root-tx_tuples_1q886d41fe7s3o-stroke" data-item-order="0" transform="translate(278, 134)"></g><g id="g-root-tx_orderedl_zk27g81fe7t3e-stroke" data-item-order="0" transform="translate(56, 170)"></g><g id="g-root-tx_ordereds_1hcl6481fe7swd-stroke" data-item-order="0" transform="translate(236, 170)"></g><g id="g-root-ic_bull_zk27g81fe7t3f-stroke" data-item-order="0" transform="translate(92, 242)"><g id="ic_bull_zk27g81fe7t3f-stroke" fill="none" stroke-linecap="round" stroke-linejoin="round" stroke-miterlimit="4" stroke="#e0cb15" stroke-width="2"><g><path d="M 12.142857 20.714285C 12.142857 21.897753 13.102247 22.857143 14.285714 22.857143C 15.469181 22.857143 16.428572 21.897753 16.428572 20.714285C 16.428572 19.530819 15.469181 18.571428 14.285714 18.571428C 13.102247 18.571428 12.142857 19.530819 12.142857 20.714285M 29.285713 20.714285L 67.85714 20.714285M 12.142857 40C 12.142857 41.183468 13.102247 42.142857 14.285714 42.142857C 15.469181 42.142857 16.428572 41.183468 16.428572 40C 16.428572 38.816532 15.469181 37.857143 14.285714 37.857143C 13.102247 37.857143 12.142857 38.816532 12.142857 40M 29.285713 40L 67.85714 40M 12.142857 59.285713C 12.142857 60.469177 13.102247 61.42857 14.285714 61.42857C 15.469181 61.42857 16.428572 60.469177 16.428572 59.285713C 16.428572 58.102245 15.469181 57.142857 14.285714 57.142857C 13.102247 57.142857 12.142857 58.102245 12.142857 59.285713M 29.285713 59.285713L 67.85714 59.285713"></path></g></g></g><g id="g-root-ic_tune_141r4u01fe7rbi-stroke" data-item-order="0" transform="translate(284, 242)"><g id="ic_tune_141r4u01fe7rbi-stroke" fill="none" stroke-linecap="round" stroke-linejoin="round" stroke-miterlimit="4" stroke="#3cc583" stroke-width="2"><g><path d="M 13.75 31.25L 40 31.25L 40 31.25L 40 57.5C 40 58.880711 38.880714 60 37.5 60L 13.75 60C 12.369288 60 11.25 58.880711 11.25 57.5L 11.25 33.75C 11.25 32.369286 12.369288 31.25 13.75 31.25ZM 42.5 20L 66.25 20C 67.630707 20 68.75 21.119287 68.75 22.5L 68.75 46.25C 68.75 47.630714 67.630707 48.75 66.25 48.75L 40 48.75L 40 48.75L 40 22.5C 40 21.119287 41.119286 20 42.5 20ZM 21.25 40L 30 40M 25.625 40L 25.625 51.25M 54.375 40L 54.375 28.75M 52.5 28.75L 56.25 28.75M 52.5 40L 56.25 40"></path></g></g></g><g id="g-root-ic_data_dfgl6g1fe7rbj-stroke" data-item-order="0" transform="translate(188, 358)"><g id="ic_data_dfgl6g1fe7rbj-stroke" fill="none" stroke-linecap="round" stroke-linejoin="round" stroke-miterlimit="4" stroke="#92bd39" stroke-width="2"><g><path d="M 63.125 11.875C 65.875 11.875 68.125 14.125 68.125 16.875L 68.125 26.875L 11.875 26.875L 11.875 16.875C 11.875 14.125 14.125 11.875 16.875 11.875L 63.125 11.875ZM 30.625 26.875L 30.625 56.375L 16.875 56.375C 14.125 56.375 11.875 54.125 11.875 51.375L 11.875 26.875L 30.625 26.875ZM 11.875 41.875L 30.625 41.875M 36.875 56.375L 30.625 56.375M 30.625 41.875L 36.875 41.875M 49.375 26.875L 68.125 26.875L 68.125 31.875M 56.875 45.625C 63.088249 45.625 68.125 43.945999 68.125 41.875C 68.125 39.804001 63.088249 38.125 56.875 38.125C 50.661751 38.125 45.625 39.804001 45.625 41.875C 45.625 43.945999 50.661751 45.625 56.875 45.625ZM 68.125 41.875L 68.125 53.125C 68.125 55.125 63.125 56.875 56.875 56.875C 50.625 56.875 45.625 55.125 45.625 53.125L 45.625 41.875M 68.125 53.125L 68.125 64.375C 68.125 66.375 63.125 68.125 56.875 68.125C 50.625 68.125 45.625 66.375 45.625 64.375L 45.625 53.125M 49.375 26.875L 49.375 31.161375"></path></g></g></g><g id="g-root-tx_nested_1cyn3941fe7sow-stroke" data-item-order="0" transform="translate(176, 430)"></g><g id="g-root-tx_represen_14303081fe7thl-stroke" data-item-order="0" transform="translate(146, 466)"></g></g></g><path id="w1uuaoxp1dfwkjl" d="M65.283 12.757a.35.35 0 0 0 .584.157l5.203-5.141-6.183 3.523.396 1.461zm-2.216-11.7a.35.35 0 0 0-.522.305v3.111l3.276-1.868-2.754-1.548zm3.728 2.105l-4.25 2.421v2.445l6.391-3.644-2.141-1.222zm4.708 3.303a.35.35 0 0 0 0-.609l-1.592-.9-7.365 4.199v1.782a.35.35 0 0 0 .523.305l8.435-4.777z M44.542 2.513c0-.433.355-.783.792-.783s.792.35.792.783-.355.783-.792.783-.792-.35-.792-.783zm59.171 0c0-.433.355-.783.792-.783s.792.35.792.783-.355.783-.792.783-.792-.35-.792-.783zm-85.951 7.636h-1.27v-.487c-.276.201-.864.609-1.881.609-1.202 0-2.274-.794-2.137-2.078.118-1.106 1.153-1.584 1.848-1.727l2.17-.345c0-.539-.29-.956-1.064-1.006s-1.21.305-1.571 1.017l-1.124-.605c1.218-2.631 5.029-1.764 5.029.414v4.207zm-1.27-2.86c.006.396-.062 1.112-.819 1.59-.587.37-1.841.299-1.903-.395-.049-.555.461-.791.906-.898l1.816-.297zm72.662 2.86h-1.27v-.487c-.276.201-.864.609-1.881.609-1.202 0-2.274-.794-2.137-2.078.118-1.106 1.153-1.584 1.848-1.727l2.17-.345c0-.539-.29-.956-1.064-1.006s-1.21.305-1.571 1.017l-1.124-.605c1.218-2.631 5.029-1.764 5.029.414v4.207zm-1.27-2.86c.006.396-.062 1.112-.82 1.59-.587.37-1.841.299-1.903-.395-.049-.555.461-.791.906-.898l1.816-.297zM99.096 10.149H97.85v-8.45h1.246v4.895l2.68-2.559h1.738l-2.633 2.535 2.715 3.578h-1.556l-2.077-2.707-.867.844v1.863zm6.053-6.114h-1.255v6.113h1.255V4.035zm-59.2 0h-1.255v6.113h1.255V4.035zm5.584 6.113V1.697h1.255v2.695c.361-.346 1-.485 1.47-.485 1.452 0 2.477 1.082 2.457 2.448v3.792h-1.27v-3.68c0-.408-.214-1.339-1.315-1.339-.968 0-1.342.756-1.342 1.339v3.681h-1.255zm-4.76-4.894V4.039h.621a.45.45 0 0 0 .45-.45v-.855h1.251v1.305h1.309v1.215h-1.309v3.109c0 .293.105.664.648.664.365 0 .531-.035.736-.07v1.137s-.361.113-.857.113c-1.398 0-1.777-1.051-1.777-1.788V5.254h-1.071zM36.528 4.039h-1.394l2.191 6.106h1.125l1.234-3.918 1.238 3.918h1.129l2.188-6.106h-1.383l-1.359 3.93-1.256-3.93h-1.124l-1.242 3.957-1.348-3.957zM26.212 7.141c-.02 1.566 1.187 3.129 3.223 3.129 1.566 0 2.383-.918 2.734-1.719L31.172 8c-.315.399-.801 1.094-1.738 1.094-1.145 0-1.825-.781-1.891-1.52h4.625c.074-.284.148-.995-.03-1.559-.336-1.064-1.221-2.102-2.839-2.102s-3.088 1.152-3.088 3.227zm1.363-.75h3.348c-.055-.43-.566-1.301-1.623-1.301a1.79 1.79 0 0 0-1.725 1.301zm-8.758.75c.038 1.758 1.277 3.133 3.145 3.133 1.074 0 1.723-.477 1.961-.672v.547h1.242V1.703h-1.258v2.888c-.414-.36-1.062-.68-1.93-.68-1.91 0-3.198 1.473-3.16 3.23zm1.309-.08c0 1.119.723 1.978 1.836 1.978a1.88 1.88 0 0 0 1.94-1.904c0-1.371-1.011-1.99-1.972-1.99s-1.805.798-1.805 1.916zm76.683-.028C96.771 5.275 95.532 3.9 93.664 3.9c-1.074 0-1.723.477-1.961.672v-.547h-1.242v8.22h1.258V9.583c.414.36 1.063.68 1.93.68 1.91 0 3.198-1.473 3.16-3.23zm-1.309.08c0-1.119-.723-1.978-1.836-1.978a1.88 1.88 0 0 0-1.94 1.904c0 1.371 1.011 1.99 1.972 1.99S95.5 8.231 95.5 7.113zM106.441 10.173V4.036h1.254v.382c.361-.346 1-.485 1.47-.485 1.452 0 2.477 1.082 2.457 2.448v3.792h-1.27V6.492c0-.408-.214-1.339-1.315-1.339-.969 0-1.342.756-1.342 1.339v3.681h-1.254zm-30.383-.021V1.824h1.084l4.215 5.777V1.824h1.32v8.328h-1.094l-4.207-5.796v5.796h-1.319zM5.24 10.149H4V2.377h1.014l2.664 3.597 2.654-3.592h1.03v7.766h-1.256V4.762L7.678 8.068 5.24 4.742v5.407z" transform="translate(323, 577)" fill="#80808088" stroke="none"></path></svg>