<?xml version="1.0" encoding="UTF-8"?>
<svg xmlns="http://www.w3.org/2000/svg" viewBox="0 0 1000 800" font-family="Arial, sans-serif">
  <!-- Background -->
  <rect width="1000" height="800" fill="#f9f9fa"/>
  
  <!-- Title Section -->
  <rect x="50" y="30" width="900" height="100" rx="10" fill="#6b46c1"/>
  <text x="500" y="85" font-size="40" font-weight="bold" text-anchor="middle" fill="white">Snapshot Pattern in ClickHouse</text>
  <text x="500" y="115" font-size="20" text-anchor="middle" fill="white">Capturing periodic complete states of entities for analysis</text>
  
  <!-- Section 1: Concept Explanation -->
  <rect x="50" y="160" width="900" height="200" rx="10" fill="#f8f0ff"/>
  <text x="65" y="190" font-size="28" font-weight="bold" fill="#333">What is the Snapshot Pattern?</text>
  
  <!-- Concept Explanation -->
  <g transform="translate(65, 210)">
    <text x="0" y="0" font-size="18" fill="#333">• Periodically captures the complete state of entities at specific points in time</text>
    <text x="0" y="35" font-size="18" fill="#333">• Each snapshot is immutable and contains all relevant entity attributes</text>
    <text x="0" y="70" font-size="18" fill="#333">• Optimized for read performance and historical comparison</text>
    <text x="0" y="105" font-size="18" fill="#333">• Simpler than event sourcing but provides less granular history</text>
    <text x="0" y="140" font-size="18" fill="#333">• Excellent for periodic reporting, compliance, and trend analysis</text>
  </g>
  
  <!-- Section 2: Visual Diagram -->
  <rect x="50" y="390" width="900" height="350" rx="10" fill="#ffffff" stroke="#6b46c1" stroke-width="2"/>
  <text x="65" y="420" font-size="28" font-weight="bold" fill="#6b46c1">Snapshot Pattern Visual Model</text>
  
  <!-- Timeline -->
  <line x1="100" y1="500" x2="900" y2="500" stroke="#333" stroke-width="2"/>
  
  <!-- Timeline markers -->
  <g>
    <!-- Day 1 -->
    <line x1="150" y1="490" x2="150" y2="510" stroke="#333" stroke-width="2"/>
    <text x="150" y="530" font-size="14" text-anchor="middle" fill="#333">Day 1</text>
    
    <!-- Day 2 -->
    <line x1="300" y1="490" x2="300" y2="510" stroke="#333" stroke-width="2"/>
    <text x="300" y="530" font-size="14" text-anchor="middle" fill="#333">Day 2</text>
    
    <!-- Day 3 -->
    <line x1="450" y1="490" x2="450" y2="510" stroke="#333" stroke-width="2"/>
    <text x="450" y="530" font-size="14" text-anchor="middle" fill="#333">Day 3</text>
    
    <!-- Day 4 -->
    <line x1="600" y1="490" x2="600" y2="510" stroke="#333" stroke-width="2"/>
    <text x="600" y="530" font-size="14" text-anchor="middle" fill="#333">Day 4</text>
    
    <!-- Day 5 -->
    <line x1="750" y1="490" x2="750" y2="510" stroke="#333" stroke-width="2"/>
    <text x="750" y="530" font-size="14" text-anchor="middle" fill="#333">Day 5</text>
    
    <!-- Today -->
    <line x1="900" y1="490" x2="900" y2="510" stroke="#333" stroke-width="2"/>
    <text x="900" y="530" font-size="14" text-anchor="middle" fill="#333">Today</text>
  </g>
  
  <!-- Snapshot boxes -->
  <g>
    <!-- Snapshot Day 1 -->
    <rect x="110" y="400" width="80" height="70" rx="5" fill="#e9d5ff" stroke="#6b46c1" stroke-width="2"/>
    <text x="150" y="430" font-size="14" text-anchor="middle" fill="#333">Snapshot</text>
    <text x="150" y="450" font-size="12" text-anchor="middle" fill="#333">Day 1</text>
    <line x1="150" y1="470" x2="150" y2="490" stroke="#6b46c1" stroke-width="2" stroke-dasharray="5,3"/>
    
    <!-- Snapshot Day 2 -->
    <rect x="260" y="400" width="80" height="70" rx="5" fill="#e9d5ff" stroke="#6b46c1" stroke-width="2"/>
    <text x="300" y="430" font-size="14" text-anchor="middle" fill="#333">Snapshot</text>
    <text x="300" y="450" font-size="12" text-anchor="middle" fill="#333">Day 2</text>
    <line x1="300" y1="470" x2="300" y2="490" stroke="#6b46c1" stroke-width="2" stroke-dasharray="5,3"/>
    
    <!-- Snapshot Day 3 -->
    <rect x="410" y="400" width="80" height="70" rx="5" fill="#e9d5ff" stroke="#6b46c1" stroke-width="2"/>
    <text x="450" y="430" font-size="14" text-anchor="middle" fill="#333">Snapshot</text>
    <text x="450" y="450" font-size="12" text-anchor="middle" fill="#333">Day 3</text>
    <line x1="450" y1="470" x2="450" y2="490" stroke="#6b46c1" stroke-width="2" stroke-dasharray="5,3"/>
    
    <!-- Snapshot Day 4 -->
    <rect x="560" y="400" width="80" height="70" rx="5" fill="#e9d5ff" stroke="#6b46c1" stroke-width="2"/>
    <text x="600" y="430" font-size="14" text-anchor="middle" fill="#333">Snapshot</text>
    <text x="600" y="450" font-size="12" text-anchor="middle" fill="#333">Day 4</text>
    <line x1="600" y1="470" x2="600" y2="490" stroke="#6b46c1" stroke-width="2" stroke-dasharray="5,3"/>
    
    <!-- Snapshot Day 5 -->
    <rect x="710" y="400" width="80" height="70" rx="5" fill="#e9d5ff" stroke="#6b46c1" stroke-width="2"/>
    <text x="750" y="430" font-size="14" text-anchor="middle" fill="#333">Snapshot</text>
    <text x="750" y="450" font-size="12" text-anchor="middle" fill="#333">Day 5</text>
    <line x1="750" y1="470" x2="750" y2="490" stroke="#6b46c1" stroke-width="2" stroke-dasharray="5,3"/>
  </g>
  
  <!-- Entity States (circles) -->
  <g>
    <!-- Day 1 state -->
    <g transform="translate(150, 580)">
      <circle cx="0" cy="0" r="40" fill="#ffffff" stroke="#6b46c1" stroke-width="2"/>
      <text x="0" y="5" font-size="12" text-anchor="middle" fill="#333">User State</text>
      <text x="0" y="-8" font-size="11" text-anchor="middle" fill="#333">Balance: $100</text>
      <text x="0" y="22" font-size="11" text-anchor="middle" fill="#333">Status: New</text>
    </g>
    
    <!-- Day 2 state -->
    <g transform="translate(300, 580)">
      <circle cx="0" cy="0" r="40" fill="#ffffff" stroke="#6b46c1" stroke-width="2"/>
      <text x="0" y="5" font-size="12" text-anchor="middle" fill="#333">User State</text>
      <text x="0" y="-8" font-size="11" text-anchor="middle" fill="#333">Balance: $250</text>
      <text x="0" y="22" font-size="11" text-anchor="middle" fill="#333">Status: Active</text>
    </g>
    
    <!-- Day 3 state -->
    <g transform="translate(450, 580)">
      <circle cx="0" cy="0" r="40" fill="#ffffff" stroke="#6b46c1" stroke-width="2"/>
      <text x="0" y="5" font-size="12" text-anchor="middle" fill="#333">User State</text>
      <text x="0" y="-8" font-size="11" text-anchor="middle" fill="#333">Balance: $210</text>
      <text x="0" y="22" font-size="11" text-anchor="middle" fill="#333">Status: Active</text>
    </g>
    
    <!-- Day 4 state -->
    <g transform="translate(600, 580)">
      <circle cx="0" cy="0" r="40" fill="#ffffff" stroke="#6b46c1" stroke-width="2"/>
      <text x="0" y="5" font-size="12" text-anchor="middle" fill="#333">User State</text>
      <text x="0" y="-8" font-size="11" text-anchor="middle" fill="#333">Balance: $150</text>
      <text x="0" y="22" font-size="11" text-anchor="middle" fill="#333">Status: Active</text>
    </g>
    
    <!-- Day 5 state -->
    <g transform="translate(750, 580)">
      <circle cx="0" cy="0" r="40" fill="#ffffff" stroke="#6b46c1" stroke-width="2"/>
      <text x="0" y="5" font-size="12" text-anchor="middle" fill="#333">User State</text>
      <text x="0" y="-8" font-size="11" text-anchor="middle" fill="#333">Balance: $0</text>
      <text x="0" y="22" font-size="11" text-anchor="middle" fill="#333">Status: Inactive</text>
    </g>
  </g>
  
  <!-- Comparison Arrows -->
  <g>
    <line x1="170" y1="545" x2="280" y2="545" stroke="#8b5cf6" stroke-width="2"/>
    <polygon points="275,540 285,545 275,550" fill="#8b5cf6"/>
    <text x="225" y="565" font-size="12" text-anchor="middle" fill="#333">Compare</text>
    
    <line x1="320" y1="545" x2="430" y2="545" stroke="#8b5cf6" stroke-width="2"/>
    <polygon points="425,540 435,545 425,550" fill="#8b5cf6"/>
    <text x="375" y="565" font-size="12" text-anchor="middle" fill="#333">Compare</text>
    
    <line x1="470" y1="545" x2="580" y2="545" stroke="#8b5cf6" stroke-width="2"/>
    <polygon points="575,540 585,545 575,550" fill="#8b5cf6"/>
    <text x="525" y="565" font-size="12" text-anchor="middle" fill="#333">Compare</text>
    
    <line x1="620" y1="545" x2="730" y2="545" stroke="#8b5cf6" stroke-width="2"/>
    <polygon points="725,540 735,545 725,550" fill="#8b5cf6"/>
    <text x="675" y="565" font-size="12" text-anchor="middle" fill="#333">Compare</text>
  </g>
  
  <!-- Section 3: Advantages and Limitations Box -->
  <rect x="50" y="650" width="900" height="130" rx="10" fill="#ffffff" stroke="#6b46c1" stroke-width="2"/>
  <text x="65" y="680" font-size="24" font-weight="bold" fill="#6b46c1">Advantages vs. Limitations</text>
  
  <g transform="translate(100, 700)">
    <!-- Advantages -->
    <text x="0" y="20" font-size="16" font-weight="bold" fill="#333">Advantages:</text>
    <text x="120" y="20" font-size="16" fill="#333">Simple conceptual model, easy point-in-time queries, efficient for reporting</text>
    
    <!-- Limitations -->
    <text x="0" y="50" font-size="16" font-weight="bold" fill="#333">Limitations:</text>
    <text x="120" y="50" font-size="16" fill="#333">Higher storage requirements, misses changes between snapshots</text>
    
    <!-- Use Cases -->
    <text x="0" y="80" font-size="16" font-weight="bold" fill="#333">Ideal for:</text>
    <text x="120" y="80" font-size="16" fill="#333">Regulatory reporting, end-of-day positions, monthly metrics, backup points</text>
  </g>
</svg>
